<mxfile host="app.diagrams.net" modified="2024-01-21T09:38:45.160Z" agent="Mozilla/5.0 (Windows NT 10.0; Win64; x64) AppleWebKit/537.36 (KHTML, like Gecko) Chrome/120.0.0.0 Safari/537.36" etag="slrUYZt9INY6kzhWHyxj" version="22.1.21" type="gitlab">
  <diagram id="C5RBs43oDa-KdzZeNtuy" name="Page-1">
    <mxGraphModel dx="1106" dy="1053" grid="1" gridSize="10" guides="1" tooltips="1" connect="1" arrows="1" fold="1" page="1" pageScale="1" pageWidth="827" pageHeight="1169" math="0" shadow="0">
      <root>
        <mxCell id="WIyWlLk6GJQsqaUBKTNV-0" />
        <mxCell id="WIyWlLk6GJQsqaUBKTNV-1" parent="WIyWlLk6GJQsqaUBKTNV-0" />
        <mxCell id="Vc_zGwzVF44Cp3WNMDV1-1" value="Implement" style="text;html=1;strokeColor=#36393d;fillColor=#eeeeee;align=center;verticalAlign=middle;whiteSpace=wrap;rounded=0;fontSize=12;labelBackgroundColor=none;labelBorderColor=none;fontFamily=Times New Roman;" parent="WIyWlLk6GJQsqaUBKTNV-1" vertex="1">
          <mxGeometry y="160" width="120" height="40" as="geometry" />
        </mxCell>
        <mxCell id="Vc_zGwzVF44Cp3WNMDV1-2" value="Implement" style="text;html=1;strokeColor=#36393d;fillColor=#eeeeee;align=center;verticalAlign=middle;whiteSpace=wrap;rounded=0;fontSize=12;labelBackgroundColor=none;labelBorderColor=none;fontFamily=Times New Roman;" parent="WIyWlLk6GJQsqaUBKTNV-1" vertex="1">
          <mxGeometry x="400" y="160" width="120" height="40" as="geometry" />
        </mxCell>
        <mxCell id="Vc_zGwzVF44Cp3WNMDV1-3" value="Interface" style="text;html=1;strokeColor=#36393d;fillColor=#eeeeee;align=center;verticalAlign=middle;whiteSpace=wrap;rounded=0;fontSize=12;labelBackgroundColor=none;labelBorderColor=none;fontFamily=Times New Roman;" parent="WIyWlLk6GJQsqaUBKTNV-1" vertex="1">
          <mxGeometry x="200" y="160" width="120" height="40" as="geometry" />
        </mxCell>
        <mxCell id="Vc_zGwzVF44Cp3WNMDV1-4" value="Interface" style="text;html=1;strokeColor=#36393d;fillColor=#eeeeee;align=center;verticalAlign=middle;whiteSpace=wrap;rounded=0;fontSize=12;labelBackgroundColor=none;labelBorderColor=none;fontFamily=Times New Roman;" parent="WIyWlLk6GJQsqaUBKTNV-1" vertex="1">
          <mxGeometry x="600" y="160" width="120" height="40" as="geometry" />
        </mxCell>
        <mxCell id="Vc_zGwzVF44Cp3WNMDV1-25" style="edgeStyle=none;curved=1;rounded=0;orthogonalLoop=1;jettySize=auto;html=1;exitX=1;exitY=0.5;exitDx=0;exitDy=0;entryX=0;entryY=0;entryDx=0;entryDy=0;fontSize=12;startSize=8;endSize=8;fontFamily=Times New Roman;" parent="WIyWlLk6GJQsqaUBKTNV-1" source="Vc_zGwzVF44Cp3WNMDV1-5" target="Vc_zGwzVF44Cp3WNMDV1-8" edge="1">
          <mxGeometry relative="1" as="geometry" />
        </mxCell>
        <mxCell id="Vc_zGwzVF44Cp3WNMDV1-5" value="Form" style="rounded=0;whiteSpace=wrap;html=1;fontSize=12;fontFamily=Times New Roman;fillColor=#ffcccc;strokeColor=#36393d;" parent="WIyWlLk6GJQsqaUBKTNV-1" vertex="1">
          <mxGeometry y="320" width="120" height="40" as="geometry" />
        </mxCell>
        <mxCell id="Vc_zGwzVF44Cp3WNMDV1-6" style="edgeStyle=none;curved=1;rounded=0;orthogonalLoop=1;jettySize=auto;html=1;exitX=0.25;exitY=1;exitDx=0;exitDy=0;fontSize=12;startSize=8;endSize=8;fontFamily=Times New Roman;" parent="WIyWlLk6GJQsqaUBKTNV-1" source="Vc_zGwzVF44Cp3WNMDV1-2" target="Vc_zGwzVF44Cp3WNMDV1-2" edge="1">
          <mxGeometry relative="1" as="geometry" />
        </mxCell>
        <mxCell id="Vc_zGwzVF44Cp3WNMDV1-21" style="edgeStyle=none;curved=1;rounded=0;orthogonalLoop=1;jettySize=auto;html=1;exitX=0.5;exitY=1;exitDx=0;exitDy=0;entryX=0.5;entryY=0;entryDx=0;entryDy=0;fontSize=12;startSize=8;endSize=8;fontFamily=Times New Roman;" parent="WIyWlLk6GJQsqaUBKTNV-1" source="Vc_zGwzVF44Cp3WNMDV1-7" target="Vc_zGwzVF44Cp3WNMDV1-8" edge="1">
          <mxGeometry relative="1" as="geometry" />
        </mxCell>
        <mxCell id="Vc_zGwzVF44Cp3WNMDV1-29" style="edgeStyle=none;curved=1;rounded=0;orthogonalLoop=1;jettySize=auto;html=1;exitX=0;exitY=0.5;exitDx=0;exitDy=0;entryX=1;entryY=0.5;entryDx=0;entryDy=0;fontSize=12;startSize=8;endSize=8;fontFamily=Times New Roman;" parent="WIyWlLk6GJQsqaUBKTNV-1" source="Vc_zGwzVF44Cp3WNMDV1-7" target="Vc_zGwzVF44Cp3WNMDV1-5" edge="1">
          <mxGeometry relative="1" as="geometry" />
        </mxCell>
        <mxCell id="Vc_zGwzVF44Cp3WNMDV1-7" value="IView" style="rounded=0;whiteSpace=wrap;html=1;fontSize=12;fontFamily=Times New Roman;fillColor=#ffcccc;strokeColor=#36393d;" parent="WIyWlLk6GJQsqaUBKTNV-1" vertex="1">
          <mxGeometry x="200" y="280" width="120" height="40" as="geometry" />
        </mxCell>
        <mxCell id="Vc_zGwzVF44Cp3WNMDV1-28" style="edgeStyle=none;curved=1;rounded=0;orthogonalLoop=1;jettySize=auto;html=1;exitX=0;exitY=0.5;exitDx=0;exitDy=0;entryX=1;entryY=0.5;entryDx=0;entryDy=0;fontSize=12;startSize=8;endSize=8;fontFamily=Times New Roman;" parent="WIyWlLk6GJQsqaUBKTNV-1" source="Vc_zGwzVF44Cp3WNMDV1-8" target="Vc_zGwzVF44Cp3WNMDV1-9" edge="1">
          <mxGeometry relative="1" as="geometry" />
        </mxCell>
        <mxCell id="Vc_zGwzVF44Cp3WNMDV1-8" value="IPresenter" style="rounded=0;whiteSpace=wrap;html=1;fontSize=12;fontFamily=Times New Roman;fillColor=#cce5ff;strokeColor=#36393d;" parent="WIyWlLk6GJQsqaUBKTNV-1" vertex="1">
          <mxGeometry x="200" y="360" width="120" height="40" as="geometry" />
        </mxCell>
        <mxCell id="Vc_zGwzVF44Cp3WNMDV1-26" style="edgeStyle=none;curved=1;rounded=0;orthogonalLoop=1;jettySize=auto;html=1;exitX=1;exitY=0.5;exitDx=0;exitDy=0;entryX=0;entryY=0.5;entryDx=0;entryDy=0;fontSize=12;startSize=8;endSize=8;fontFamily=Times New Roman;" parent="WIyWlLk6GJQsqaUBKTNV-1" source="Vc_zGwzVF44Cp3WNMDV1-9" target="Vc_zGwzVF44Cp3WNMDV1-11" edge="1">
          <mxGeometry relative="1" as="geometry" />
        </mxCell>
        <mxCell id="Vc_zGwzVF44Cp3WNMDV1-9" value="Presenter" style="rounded=0;whiteSpace=wrap;html=1;fontSize=12;fontFamily=Times New Roman;fillColor=#cce5ff;strokeColor=#36393d;" parent="WIyWlLk6GJQsqaUBKTNV-1" vertex="1">
          <mxGeometry y="400" width="120" height="40" as="geometry" />
        </mxCell>
        <mxCell id="Vc_zGwzVF44Cp3WNMDV1-31" style="edgeStyle=none;curved=1;rounded=0;orthogonalLoop=1;jettySize=auto;html=1;exitX=1;exitY=0.5;exitDx=0;exitDy=0;fontSize=12;startSize=8;endSize=8;fontFamily=Times New Roman;" parent="WIyWlLk6GJQsqaUBKTNV-1" source="Vc_zGwzVF44Cp3WNMDV1-10" target="Vc_zGwzVF44Cp3WNMDV1-12" edge="1">
          <mxGeometry relative="1" as="geometry" />
        </mxCell>
        <mxCell id="Vc_zGwzVF44Cp3WNMDV1-10" value="Service" style="rounded=0;whiteSpace=wrap;html=1;fontSize=12;fontFamily=Times New Roman;fillColor=#cdeb8b;strokeColor=#36393d;" parent="WIyWlLk6GJQsqaUBKTNV-1" vertex="1">
          <mxGeometry y="480" width="120" height="40" as="geometry" />
        </mxCell>
        <mxCell id="Vc_zGwzVF44Cp3WNMDV1-30" style="edgeStyle=none;curved=1;rounded=0;orthogonalLoop=1;jettySize=auto;html=1;exitX=0;exitY=0.5;exitDx=0;exitDy=0;entryX=1;entryY=0.5;entryDx=0;entryDy=0;fontSize=12;startSize=8;endSize=8;fontFamily=Times New Roman;" parent="WIyWlLk6GJQsqaUBKTNV-1" source="Vc_zGwzVF44Cp3WNMDV1-11" target="Vc_zGwzVF44Cp3WNMDV1-10" edge="1">
          <mxGeometry relative="1" as="geometry" />
        </mxCell>
        <mxCell id="Vc_zGwzVF44Cp3WNMDV1-11" value="IService" style="rounded=0;whiteSpace=wrap;html=1;fontSize=12;fontFamily=Times New Roman;fillColor=#cdeb8b;strokeColor=#36393d;" parent="WIyWlLk6GJQsqaUBKTNV-1" vertex="1">
          <mxGeometry x="200" y="440" width="120" height="40" as="geometry" />
        </mxCell>
        <mxCell id="Vc_zGwzVF44Cp3WNMDV1-37" style="edgeStyle=none;curved=1;rounded=0;orthogonalLoop=1;jettySize=auto;html=1;exitX=1;exitY=0.5;exitDx=0;exitDy=0;entryX=0;entryY=0;entryDx=0;entryDy=0;fontSize=12;startSize=8;endSize=8;fontFamily=Times New Roman;" parent="WIyWlLk6GJQsqaUBKTNV-1" source="Vc_zGwzVF44Cp3WNMDV1-12" target="Vc_zGwzVF44Cp3WNMDV1-14" edge="1">
          <mxGeometry relative="1" as="geometry" />
        </mxCell>
        <mxCell id="Vc_zGwzVF44Cp3WNMDV1-12" value="API" style="rounded=0;whiteSpace=wrap;html=1;fontSize=12;fontFamily=Times New Roman;fillColor=#bac8d3;strokeColor=#23445d;" parent="WIyWlLk6GJQsqaUBKTNV-1" vertex="1">
          <mxGeometry x="400" y="480" width="120" height="40" as="geometry" />
        </mxCell>
        <mxCell id="8rKOA6uTmOLBXOOrl2uE-82" style="edgeStyle=orthogonalEdgeStyle;rounded=0;orthogonalLoop=1;jettySize=auto;html=1;exitX=0.5;exitY=1;exitDx=0;exitDy=0;fontFamily=Times New Roman;fontSize=12;fontColor=default;" edge="1" parent="WIyWlLk6GJQsqaUBKTNV-1" source="Vc_zGwzVF44Cp3WNMDV1-13" target="Vc_zGwzVF44Cp3WNMDV1-12">
          <mxGeometry relative="1" as="geometry" />
        </mxCell>
        <mxCell id="Vc_zGwzVF44Cp3WNMDV1-13" value="Core DTO" style="rounded=0;whiteSpace=wrap;html=1;fontSize=12;fontFamily=Times New Roman;fillColor=#A5D3AB;strokeColor=#23445d;" parent="WIyWlLk6GJQsqaUBKTNV-1" vertex="1">
          <mxGeometry x="400" y="400" width="120" height="40" as="geometry" />
        </mxCell>
        <mxCell id="Vc_zGwzVF44Cp3WNMDV1-38" style="edgeStyle=none;curved=1;rounded=0;orthogonalLoop=1;jettySize=auto;html=1;exitX=0;exitY=0.5;exitDx=0;exitDy=0;entryX=1;entryY=0.5;entryDx=0;entryDy=0;fontSize=12;startSize=8;endSize=8;fontFamily=Times New Roman;" parent="WIyWlLk6GJQsqaUBKTNV-1" source="Vc_zGwzVF44Cp3WNMDV1-14" target="Vc_zGwzVF44Cp3WNMDV1-15" edge="1">
          <mxGeometry relative="1" as="geometry" />
        </mxCell>
        <mxCell id="Vc_zGwzVF44Cp3WNMDV1-14" value="Core Service" style="rounded=0;whiteSpace=wrap;html=1;fontSize=12;fontFamily=Times New Roman;fillColor=#fff2cc;strokeColor=#d6b656;" parent="WIyWlLk6GJQsqaUBKTNV-1" vertex="1">
          <mxGeometry x="600" y="560" width="120" height="40" as="geometry" />
        </mxCell>
        <mxCell id="Vc_zGwzVF44Cp3WNMDV1-39" style="edgeStyle=none;curved=1;rounded=0;orthogonalLoop=1;jettySize=auto;html=1;exitX=1;exitY=1;exitDx=0;exitDy=0;entryX=0;entryY=0;entryDx=0;entryDy=0;fontSize=12;startSize=8;endSize=8;fontFamily=Times New Roman;" parent="WIyWlLk6GJQsqaUBKTNV-1" source="Vc_zGwzVF44Cp3WNMDV1-15" target="Vc_zGwzVF44Cp3WNMDV1-16" edge="1">
          <mxGeometry relative="1" as="geometry" />
        </mxCell>
        <mxCell id="Vc_zGwzVF44Cp3WNMDV1-15" value="Service" style="rounded=0;whiteSpace=wrap;html=1;fontSize=12;fontFamily=Times New Roman;fillColor=#fff2cc;strokeColor=#d6b656;" parent="WIyWlLk6GJQsqaUBKTNV-1" vertex="1">
          <mxGeometry x="400" y="560" width="120" height="40" as="geometry" />
        </mxCell>
        <mxCell id="Vc_zGwzVF44Cp3WNMDV1-40" style="edgeStyle=none;curved=1;rounded=0;orthogonalLoop=1;jettySize=auto;html=1;exitX=0;exitY=0.5;exitDx=0;exitDy=0;entryX=1;entryY=0.5;entryDx=0;entryDy=0;fontSize=12;startSize=8;endSize=8;fontFamily=Times New Roman;" parent="WIyWlLk6GJQsqaUBKTNV-1" source="Vc_zGwzVF44Cp3WNMDV1-16" target="Vc_zGwzVF44Cp3WNMDV1-17" edge="1">
          <mxGeometry relative="1" as="geometry" />
        </mxCell>
        <mxCell id="Vc_zGwzVF44Cp3WNMDV1-16" value="Core Repository" style="rounded=0;whiteSpace=wrap;html=1;fontSize=12;fontFamily=Times New Roman;fillColor=#e1d5e7;strokeColor=#9673a6;" parent="WIyWlLk6GJQsqaUBKTNV-1" vertex="1">
          <mxGeometry x="600" y="640" width="120" height="40" as="geometry" />
        </mxCell>
        <mxCell id="Vc_zGwzVF44Cp3WNMDV1-41" style="edgeStyle=none;curved=1;rounded=0;orthogonalLoop=1;jettySize=auto;html=1;exitX=1;exitY=1;exitDx=0;exitDy=0;entryX=0;entryY=0;entryDx=0;entryDy=0;fontSize=12;startSize=8;endSize=8;fontFamily=Times New Roman;" parent="WIyWlLk6GJQsqaUBKTNV-1" source="Vc_zGwzVF44Cp3WNMDV1-17" target="Vc_zGwzVF44Cp3WNMDV1-18" edge="1">
          <mxGeometry relative="1" as="geometry" />
        </mxCell>
        <mxCell id="Vc_zGwzVF44Cp3WNMDV1-17" value="Repository" style="rounded=0;whiteSpace=wrap;html=1;fontSize=12;fontFamily=Times New Roman;fillColor=#e1d5e7;strokeColor=#9673a6;" parent="WIyWlLk6GJQsqaUBKTNV-1" vertex="1">
          <mxGeometry x="400" y="640" width="120" height="40" as="geometry" />
        </mxCell>
        <mxCell id="Vc_zGwzVF44Cp3WNMDV1-42" style="edgeStyle=none;curved=1;rounded=0;orthogonalLoop=1;jettySize=auto;html=1;exitX=0;exitY=0.5;exitDx=0;exitDy=0;entryX=1;entryY=0.5;entryDx=0;entryDy=0;fontSize=12;startSize=8;endSize=8;fontFamily=Times New Roman;" parent="WIyWlLk6GJQsqaUBKTNV-1" source="Vc_zGwzVF44Cp3WNMDV1-18" target="Vc_zGwzVF44Cp3WNMDV1-19" edge="1">
          <mxGeometry relative="1" as="geometry" />
        </mxCell>
        <mxCell id="Vc_zGwzVF44Cp3WNMDV1-18" value="Core UnitOfwork" style="rounded=0;whiteSpace=wrap;html=1;fontSize=12;fontFamily=Times New Roman;fillColor=#E7BBCD;strokeColor=#9673a6;" parent="WIyWlLk6GJQsqaUBKTNV-1" vertex="1">
          <mxGeometry x="600" y="720" width="120" height="40" as="geometry" />
        </mxCell>
        <mxCell id="Vc_zGwzVF44Cp3WNMDV1-19" value="UnitOfWork" style="rounded=0;whiteSpace=wrap;html=1;fontSize=12;fontFamily=Times New Roman;fillColor=#E7BBCD;strokeColor=#9673a6;" parent="WIyWlLk6GJQsqaUBKTNV-1" vertex="1">
          <mxGeometry x="400" y="720" width="120" height="40" as="geometry" />
        </mxCell>
        <mxCell id="Vc_zGwzVF44Cp3WNMDV1-46" value="Front End" style="text;html=1;strokeColor=#0e8088;fillColor=#b0e3e6;align=center;verticalAlign=middle;whiteSpace=wrap;rounded=0;fontSize=16;fontFamily=Times New Roman;" parent="WIyWlLk6GJQsqaUBKTNV-1" vertex="1">
          <mxGeometry y="80" width="320" height="40" as="geometry" />
        </mxCell>
        <mxCell id="Vc_zGwzVF44Cp3WNMDV1-47" value="Back End" style="text;html=1;strokeColor=#0e8088;fillColor=#b0e3e6;align=center;verticalAlign=middle;whiteSpace=wrap;rounded=0;fontSize=16;fontFamily=Times New Roman;" parent="WIyWlLk6GJQsqaUBKTNV-1" vertex="1">
          <mxGeometry x="400" y="80" width="320" height="40" as="geometry" />
        </mxCell>
        <mxCell id="8rKOA6uTmOLBXOOrl2uE-63" style="edgeStyle=orthogonalEdgeStyle;rounded=0;orthogonalLoop=1;jettySize=auto;html=1;exitX=0.25;exitY=1;exitDx=0;exitDy=0;entryX=0;entryY=0.5;entryDx=0;entryDy=0;fontFamily=Times New Roman;fontSize=12;fontColor=default;" edge="1" parent="WIyWlLk6GJQsqaUBKTNV-1" source="8rKOA6uTmOLBXOOrl2uE-0" target="8rKOA6uTmOLBXOOrl2uE-52">
          <mxGeometry relative="1" as="geometry" />
        </mxCell>
        <mxCell id="8rKOA6uTmOLBXOOrl2uE-65" style="edgeStyle=orthogonalEdgeStyle;rounded=0;orthogonalLoop=1;jettySize=auto;html=1;exitX=0.25;exitY=1;exitDx=0;exitDy=0;entryX=0;entryY=0.5;entryDx=0;entryDy=0;fontFamily=Times New Roman;fontSize=12;fontColor=default;" edge="1" parent="WIyWlLk6GJQsqaUBKTNV-1" source="8rKOA6uTmOLBXOOrl2uE-0" target="8rKOA6uTmOLBXOOrl2uE-59">
          <mxGeometry relative="1" as="geometry" />
        </mxCell>
        <mxCell id="8rKOA6uTmOLBXOOrl2uE-66" style="edgeStyle=orthogonalEdgeStyle;rounded=0;orthogonalLoop=1;jettySize=auto;html=1;exitX=0.25;exitY=1;exitDx=0;exitDy=0;entryX=0;entryY=0.5;entryDx=0;entryDy=0;fontFamily=Times New Roman;fontSize=12;fontColor=default;" edge="1" parent="WIyWlLk6GJQsqaUBKTNV-1" source="8rKOA6uTmOLBXOOrl2uE-0" target="8rKOA6uTmOLBXOOrl2uE-60">
          <mxGeometry relative="1" as="geometry" />
        </mxCell>
        <mxCell id="8rKOA6uTmOLBXOOrl2uE-77" style="edgeStyle=orthogonalEdgeStyle;rounded=0;orthogonalLoop=1;jettySize=auto;html=1;exitX=0.25;exitY=1;exitDx=0;exitDy=0;entryX=0;entryY=0.5;entryDx=0;entryDy=0;fontFamily=Times New Roman;fontSize=12;fontColor=default;" edge="1" parent="WIyWlLk6GJQsqaUBKTNV-1" source="8rKOA6uTmOLBXOOrl2uE-0" target="8rKOA6uTmOLBXOOrl2uE-76">
          <mxGeometry relative="1" as="geometry" />
        </mxCell>
        <mxCell id="8rKOA6uTmOLBXOOrl2uE-0" value="Front End" style="text;html=1;strokeColor=#0e8088;fillColor=#b0e3e6;align=center;verticalAlign=middle;whiteSpace=wrap;rounded=0;fontSize=16;fontFamily=Times New Roman;" vertex="1" parent="WIyWlLk6GJQsqaUBKTNV-1">
          <mxGeometry x="827" y="80" width="320" height="40" as="geometry" />
        </mxCell>
        <mxCell id="8rKOA6uTmOLBXOOrl2uE-26" style="edgeStyle=orthogonalEdgeStyle;rounded=0;orthogonalLoop=1;jettySize=auto;html=1;exitX=0.25;exitY=1;exitDx=0;exitDy=0;entryX=0;entryY=0.5;entryDx=0;entryDy=0;fontFamily=Times New Roman;fontSize=12;fontColor=default;" edge="1" parent="WIyWlLk6GJQsqaUBKTNV-1" source="8rKOA6uTmOLBXOOrl2uE-1" target="8rKOA6uTmOLBXOOrl2uE-10">
          <mxGeometry relative="1" as="geometry" />
        </mxCell>
        <mxCell id="8rKOA6uTmOLBXOOrl2uE-28" style="edgeStyle=orthogonalEdgeStyle;rounded=0;orthogonalLoop=1;jettySize=auto;html=1;exitX=0.25;exitY=1;exitDx=0;exitDy=0;entryX=0;entryY=0.5;entryDx=0;entryDy=0;fontFamily=Times New Roman;fontSize=12;fontColor=default;" edge="1" parent="WIyWlLk6GJQsqaUBKTNV-1" source="8rKOA6uTmOLBXOOrl2uE-1" target="8rKOA6uTmOLBXOOrl2uE-18">
          <mxGeometry relative="1" as="geometry" />
        </mxCell>
        <mxCell id="8rKOA6uTmOLBXOOrl2uE-33" style="edgeStyle=orthogonalEdgeStyle;rounded=0;orthogonalLoop=1;jettySize=auto;html=1;exitX=0.25;exitY=1;exitDx=0;exitDy=0;entryX=0;entryY=0.5;entryDx=0;entryDy=0;fontFamily=Times New Roman;fontSize=12;fontColor=default;" edge="1" parent="WIyWlLk6GJQsqaUBKTNV-1" source="8rKOA6uTmOLBXOOrl2uE-1" target="8rKOA6uTmOLBXOOrl2uE-21">
          <mxGeometry relative="1" as="geometry" />
        </mxCell>
        <mxCell id="8rKOA6uTmOLBXOOrl2uE-40" style="edgeStyle=orthogonalEdgeStyle;rounded=0;orthogonalLoop=1;jettySize=auto;html=1;exitX=0.25;exitY=1;exitDx=0;exitDy=0;entryX=0;entryY=0.5;entryDx=0;entryDy=0;fontFamily=Times New Roman;fontSize=12;fontColor=default;" edge="1" parent="WIyWlLk6GJQsqaUBKTNV-1" source="8rKOA6uTmOLBXOOrl2uE-1" target="8rKOA6uTmOLBXOOrl2uE-8">
          <mxGeometry relative="1" as="geometry" />
        </mxCell>
        <mxCell id="8rKOA6uTmOLBXOOrl2uE-41" style="edgeStyle=orthogonalEdgeStyle;rounded=0;orthogonalLoop=1;jettySize=auto;html=1;exitX=0.25;exitY=1;exitDx=0;exitDy=0;entryX=0;entryY=0.5;entryDx=0;entryDy=0;fontFamily=Times New Roman;fontSize=12;fontColor=default;" edge="1" parent="WIyWlLk6GJQsqaUBKTNV-1" source="8rKOA6uTmOLBXOOrl2uE-1" target="8rKOA6uTmOLBXOOrl2uE-14">
          <mxGeometry relative="1" as="geometry" />
        </mxCell>
        <mxCell id="8rKOA6uTmOLBXOOrl2uE-48" style="edgeStyle=orthogonalEdgeStyle;rounded=0;orthogonalLoop=1;jettySize=auto;html=1;exitX=0.25;exitY=1;exitDx=0;exitDy=0;entryX=0;entryY=0.5;entryDx=0;entryDy=0;fontFamily=Times New Roman;fontSize=12;fontColor=default;" edge="1" parent="WIyWlLk6GJQsqaUBKTNV-1" source="8rKOA6uTmOLBXOOrl2uE-1" target="8rKOA6uTmOLBXOOrl2uE-47">
          <mxGeometry relative="1" as="geometry" />
        </mxCell>
        <mxCell id="8rKOA6uTmOLBXOOrl2uE-1" value="Back End" style="text;html=1;strokeColor=#0e8088;fillColor=#b0e3e6;align=center;verticalAlign=middle;whiteSpace=wrap;rounded=0;fontSize=16;fontFamily=Times New Roman;" vertex="1" parent="WIyWlLk6GJQsqaUBKTNV-1">
          <mxGeometry x="1227" y="80" width="320" height="40" as="geometry" />
        </mxCell>
        <mxCell id="8rKOA6uTmOLBXOOrl2uE-44" style="edgeStyle=orthogonalEdgeStyle;rounded=0;orthogonalLoop=1;jettySize=auto;html=1;exitX=0.25;exitY=1;exitDx=0;exitDy=0;entryX=0;entryY=0.5;entryDx=0;entryDy=0;fontFamily=Times New Roman;fontSize=12;fontColor=default;" edge="1" parent="WIyWlLk6GJQsqaUBKTNV-1" source="8rKOA6uTmOLBXOOrl2uE-8" target="8rKOA6uTmOLBXOOrl2uE-43">
          <mxGeometry relative="1" as="geometry" />
        </mxCell>
        <mxCell id="8rKOA6uTmOLBXOOrl2uE-8" value="API" style="rounded=0;whiteSpace=wrap;html=1;fontSize=12;fontFamily=Times New Roman;fillColor=#bac8d3;strokeColor=#23445d;" vertex="1" parent="WIyWlLk6GJQsqaUBKTNV-1">
          <mxGeometry x="1327" y="800" width="120" height="40" as="geometry" />
        </mxCell>
        <mxCell id="8rKOA6uTmOLBXOOrl2uE-29" style="edgeStyle=orthogonalEdgeStyle;rounded=0;orthogonalLoop=1;jettySize=auto;html=1;exitX=0.25;exitY=1;exitDx=0;exitDy=0;entryX=0;entryY=0.5;entryDx=0;entryDy=0;fontFamily=Times New Roman;fontSize=12;fontColor=default;" edge="1" parent="WIyWlLk6GJQsqaUBKTNV-1" source="8rKOA6uTmOLBXOOrl2uE-10" target="8rKOA6uTmOLBXOOrl2uE-22">
          <mxGeometry relative="1" as="geometry" />
        </mxCell>
        <mxCell id="8rKOA6uTmOLBXOOrl2uE-10" value="Core DTO" style="rounded=0;whiteSpace=wrap;html=1;fontSize=12;fontFamily=Times New Roman;fillColor=#A5D3AB;strokeColor=#23445d;" vertex="1" parent="WIyWlLk6GJQsqaUBKTNV-1">
          <mxGeometry x="1327" y="160" width="120" height="40" as="geometry" />
        </mxCell>
        <mxCell id="8rKOA6uTmOLBXOOrl2uE-12" value="Core Service" style="rounded=0;whiteSpace=wrap;html=1;fontSize=12;fontFamily=Times New Roman;fillColor=#fff2cc;strokeColor=#d6b656;" vertex="1" parent="WIyWlLk6GJQsqaUBKTNV-1">
          <mxGeometry x="1527" y="960" width="120" height="40" as="geometry" />
        </mxCell>
        <mxCell id="8rKOA6uTmOLBXOOrl2uE-42" style="edgeStyle=orthogonalEdgeStyle;rounded=0;orthogonalLoop=1;jettySize=auto;html=1;exitX=1;exitY=0.5;exitDx=0;exitDy=0;entryX=0;entryY=0.5;entryDx=0;entryDy=0;fontFamily=Times New Roman;fontSize=12;fontColor=default;" edge="1" parent="WIyWlLk6GJQsqaUBKTNV-1" source="8rKOA6uTmOLBXOOrl2uE-14" target="8rKOA6uTmOLBXOOrl2uE-12">
          <mxGeometry relative="1" as="geometry" />
        </mxCell>
        <mxCell id="8rKOA6uTmOLBXOOrl2uE-46" style="edgeStyle=orthogonalEdgeStyle;rounded=0;orthogonalLoop=1;jettySize=auto;html=1;exitX=0.25;exitY=1;exitDx=0;exitDy=0;entryX=0;entryY=0.5;entryDx=0;entryDy=0;fontFamily=Times New Roman;fontSize=12;fontColor=default;" edge="1" parent="WIyWlLk6GJQsqaUBKTNV-1" source="8rKOA6uTmOLBXOOrl2uE-14" target="8rKOA6uTmOLBXOOrl2uE-45">
          <mxGeometry relative="1" as="geometry" />
        </mxCell>
        <mxCell id="8rKOA6uTmOLBXOOrl2uE-14" value="Service" style="rounded=0;whiteSpace=wrap;html=1;fontSize=12;fontFamily=Times New Roman;fillColor=#fff2cc;strokeColor=#d6b656;" vertex="1" parent="WIyWlLk6GJQsqaUBKTNV-1">
          <mxGeometry x="1327" y="960" width="120" height="40" as="geometry" />
        </mxCell>
        <mxCell id="8rKOA6uTmOLBXOOrl2uE-16" value="Core Repository" style="rounded=0;whiteSpace=wrap;html=1;fontSize=12;fontFamily=Times New Roman;fillColor=#e1d5e7;strokeColor=#9673a6;" vertex="1" parent="WIyWlLk6GJQsqaUBKTNV-1">
          <mxGeometry x="1487" y="320" width="120" height="40" as="geometry" />
        </mxCell>
        <mxCell id="8rKOA6uTmOLBXOOrl2uE-35" style="edgeStyle=orthogonalEdgeStyle;rounded=0;orthogonalLoop=1;jettySize=auto;html=1;exitX=1;exitY=0.5;exitDx=0;exitDy=0;entryX=0;entryY=0.5;entryDx=0;entryDy=0;fontFamily=Times New Roman;fontSize=12;fontColor=default;" edge="1" parent="WIyWlLk6GJQsqaUBKTNV-1" source="8rKOA6uTmOLBXOOrl2uE-18" target="8rKOA6uTmOLBXOOrl2uE-16">
          <mxGeometry relative="1" as="geometry" />
        </mxCell>
        <mxCell id="8rKOA6uTmOLBXOOrl2uE-36" style="edgeStyle=orthogonalEdgeStyle;rounded=0;orthogonalLoop=1;jettySize=auto;html=1;exitX=0.25;exitY=1;exitDx=0;exitDy=0;entryX=0;entryY=0.5;entryDx=0;entryDy=0;fontFamily=Times New Roman;fontSize=12;fontColor=default;" edge="1" parent="WIyWlLk6GJQsqaUBKTNV-1" source="8rKOA6uTmOLBXOOrl2uE-18" target="8rKOA6uTmOLBXOOrl2uE-30">
          <mxGeometry relative="1" as="geometry" />
        </mxCell>
        <mxCell id="8rKOA6uTmOLBXOOrl2uE-18" value="Repository" style="rounded=0;whiteSpace=wrap;html=1;fontSize=12;fontFamily=Times New Roman;fillColor=#e1d5e7;strokeColor=#9673a6;" vertex="1" parent="WIyWlLk6GJQsqaUBKTNV-1">
          <mxGeometry x="1327" y="320" width="120" height="40" as="geometry" />
        </mxCell>
        <mxCell id="8rKOA6uTmOLBXOOrl2uE-20" value="Core UnitOfwork" style="rounded=0;whiteSpace=wrap;html=1;fontSize=12;fontFamily=Times New Roman;fillColor=#E7BBCD;strokeColor=#9673a6;" vertex="1" parent="WIyWlLk6GJQsqaUBKTNV-1">
          <mxGeometry x="1487" y="480" width="120" height="40" as="geometry" />
        </mxCell>
        <mxCell id="8rKOA6uTmOLBXOOrl2uE-37" style="edgeStyle=orthogonalEdgeStyle;rounded=0;orthogonalLoop=1;jettySize=auto;html=1;exitX=1;exitY=0.5;exitDx=0;exitDy=0;fontFamily=Times New Roman;fontSize=12;fontColor=default;" edge="1" parent="WIyWlLk6GJQsqaUBKTNV-1" source="8rKOA6uTmOLBXOOrl2uE-21" target="8rKOA6uTmOLBXOOrl2uE-20">
          <mxGeometry relative="1" as="geometry" />
        </mxCell>
        <mxCell id="8rKOA6uTmOLBXOOrl2uE-39" style="edgeStyle=orthogonalEdgeStyle;rounded=0;orthogonalLoop=1;jettySize=auto;html=1;exitX=0.25;exitY=1;exitDx=0;exitDy=0;entryX=0;entryY=0.5;entryDx=0;entryDy=0;fontFamily=Times New Roman;fontSize=12;fontColor=default;" edge="1" parent="WIyWlLk6GJQsqaUBKTNV-1" source="8rKOA6uTmOLBXOOrl2uE-21" target="8rKOA6uTmOLBXOOrl2uE-38">
          <mxGeometry relative="1" as="geometry" />
        </mxCell>
        <mxCell id="8rKOA6uTmOLBXOOrl2uE-21" value="UnitOfWork" style="rounded=0;whiteSpace=wrap;html=1;fontSize=12;fontFamily=Times New Roman;fillColor=#E7BBCD;strokeColor=#9673a6;" vertex="1" parent="WIyWlLk6GJQsqaUBKTNV-1">
          <mxGeometry x="1327" y="480" width="120" height="40" as="geometry" />
        </mxCell>
        <mxCell id="8rKOA6uTmOLBXOOrl2uE-22" value="เพิ่ม DTO ตาม Table ที่ต้องใช้ เป็น Entity ที่เอาไว้เก็บ Properties เพื่ออ้างอิงถึง Object ใน Database&amp;nbsp;" style="rounded=0;whiteSpace=wrap;html=1;align=left;fontFamily=Times New Roman;" vertex="1" parent="WIyWlLk6GJQsqaUBKTNV-1">
          <mxGeometry x="1377" y="240" width="273" height="40" as="geometry" />
        </mxCell>
        <mxCell id="8rKOA6uTmOLBXOOrl2uE-30" value="เพิ่ม Repository และ Core Repository ให้ตรงตาม DTO ตาม table ที่ต้องใช้ เพื่อสร้าง Instance (DbContext)" style="rounded=0;whiteSpace=wrap;html=1;align=left;fontFamily=Times New Roman;" vertex="1" parent="WIyWlLk6GJQsqaUBKTNV-1">
          <mxGeometry x="1377" y="400" width="273" height="40" as="geometry" />
        </mxCell>
        <mxCell id="8rKOA6uTmOLBXOOrl2uE-38" value="เพิ่ม UnitOfWork และ Core UnitOfWork&amp;nbsp;ให้ตรงตาม Repository และ DTO ตาม table ที่ต้องใช้" style="rounded=0;whiteSpace=wrap;html=1;align=left;fontFamily=Times New Roman;" vertex="1" parent="WIyWlLk6GJQsqaUBKTNV-1">
          <mxGeometry x="1377" y="560" width="273" height="40" as="geometry" />
        </mxCell>
        <mxCell id="8rKOA6uTmOLBXOOrl2uE-43" value="ตรวจสอบว่าจะต้องแสดงข้อมูลเป็น Object หรือ List และตรวจสอบว่ามี Parameter หรือไม่" style="rounded=0;whiteSpace=wrap;html=1;align=left;fontFamily=Times New Roman;" vertex="1" parent="WIyWlLk6GJQsqaUBKTNV-1">
          <mxGeometry x="1377" y="880" width="273" height="40" as="geometry" />
        </mxCell>
        <mxCell id="8rKOA6uTmOLBXOOrl2uE-45" value="การแสดงข้อมูลจะต้องตรงกับ API เช่น Object หรือ List ใช้ Inner Join ในการ Join ตามเอกสารจาก SA" style="rounded=0;whiteSpace=wrap;html=1;align=left;fontFamily=Times New Roman;" vertex="1" parent="WIyWlLk6GJQsqaUBKTNV-1">
          <mxGeometry x="1377" y="1040" width="273" height="40" as="geometry" />
        </mxCell>
        <mxCell id="8rKOA6uTmOLBXOOrl2uE-50" style="edgeStyle=orthogonalEdgeStyle;rounded=0;orthogonalLoop=1;jettySize=auto;html=1;exitX=0.25;exitY=1;exitDx=0;exitDy=0;entryX=0;entryY=0.5;entryDx=0;entryDy=0;fontFamily=Times New Roman;fontSize=12;fontColor=default;" edge="1" parent="WIyWlLk6GJQsqaUBKTNV-1" source="8rKOA6uTmOLBXOOrl2uE-47" target="8rKOA6uTmOLBXOOrl2uE-49">
          <mxGeometry relative="1" as="geometry" />
        </mxCell>
        <mxCell id="8rKOA6uTmOLBXOOrl2uE-47" value="Core DTO" style="rounded=0;whiteSpace=wrap;html=1;fontSize=12;fontFamily=Times New Roman;fillColor=#EA6B66;strokeColor=#23445d;" vertex="1" parent="WIyWlLk6GJQsqaUBKTNV-1">
          <mxGeometry x="1327" y="640" width="120" height="40" as="geometry" />
        </mxCell>
        <mxCell id="8rKOA6uTmOLBXOOrl2uE-49" value="เพิ่ม DTO ตาม Properties ที่ต้องแสดง หรือใช้เก็บข้อมูล หรือเก็บข้อมูลเป็น List" style="rounded=0;whiteSpace=wrap;html=1;align=left;fontFamily=Times New Roman;" vertex="1" parent="WIyWlLk6GJQsqaUBKTNV-1">
          <mxGeometry x="1382" y="720" width="268" height="40" as="geometry" />
        </mxCell>
        <mxCell id="8rKOA6uTmOLBXOOrl2uE-64" style="edgeStyle=orthogonalEdgeStyle;rounded=0;orthogonalLoop=1;jettySize=auto;html=1;exitX=1;exitY=0.5;exitDx=0;exitDy=0;entryX=0;entryY=0.5;entryDx=0;entryDy=0;fontFamily=Times New Roman;fontSize=12;fontColor=default;" edge="1" parent="WIyWlLk6GJQsqaUBKTNV-1" source="8rKOA6uTmOLBXOOrl2uE-52" target="8rKOA6uTmOLBXOOrl2uE-55">
          <mxGeometry relative="1" as="geometry" />
        </mxCell>
        <mxCell id="8rKOA6uTmOLBXOOrl2uE-68" style="edgeStyle=orthogonalEdgeStyle;rounded=0;orthogonalLoop=1;jettySize=auto;html=1;exitX=0.25;exitY=1;exitDx=0;exitDy=0;entryX=0;entryY=0.5;entryDx=0;entryDy=0;fontFamily=Times New Roman;fontSize=12;fontColor=default;" edge="1" parent="WIyWlLk6GJQsqaUBKTNV-1" source="8rKOA6uTmOLBXOOrl2uE-52" target="8rKOA6uTmOLBXOOrl2uE-67">
          <mxGeometry relative="1" as="geometry" />
        </mxCell>
        <mxCell id="8rKOA6uTmOLBXOOrl2uE-52" value="Form" style="rounded=0;whiteSpace=wrap;html=1;fontSize=12;fontFamily=Times New Roman;fillColor=#ffcccc;strokeColor=#36393d;" vertex="1" parent="WIyWlLk6GJQsqaUBKTNV-1">
          <mxGeometry x="927" y="320" width="120" height="40" as="geometry" />
        </mxCell>
        <mxCell id="8rKOA6uTmOLBXOOrl2uE-55" value="IView" style="rounded=0;whiteSpace=wrap;html=1;fontSize=12;fontFamily=Times New Roman;fillColor=#ffcccc;strokeColor=#36393d;" vertex="1" parent="WIyWlLk6GJQsqaUBKTNV-1">
          <mxGeometry x="1087" y="320" width="120" height="40" as="geometry" />
        </mxCell>
        <mxCell id="8rKOA6uTmOLBXOOrl2uE-57" value="IPresenter" style="rounded=0;whiteSpace=wrap;html=1;fontSize=12;fontFamily=Times New Roman;fillColor=#cce5ff;strokeColor=#36393d;" vertex="1" parent="WIyWlLk6GJQsqaUBKTNV-1">
          <mxGeometry x="1087" y="480" width="120" height="40" as="geometry" />
        </mxCell>
        <mxCell id="8rKOA6uTmOLBXOOrl2uE-69" style="edgeStyle=orthogonalEdgeStyle;rounded=0;orthogonalLoop=1;jettySize=auto;html=1;exitX=1;exitY=0.5;exitDx=0;exitDy=0;entryX=0;entryY=0.5;entryDx=0;entryDy=0;fontFamily=Times New Roman;fontSize=12;fontColor=default;" edge="1" parent="WIyWlLk6GJQsqaUBKTNV-1" source="8rKOA6uTmOLBXOOrl2uE-59" target="8rKOA6uTmOLBXOOrl2uE-57">
          <mxGeometry relative="1" as="geometry" />
        </mxCell>
        <mxCell id="8rKOA6uTmOLBXOOrl2uE-72" style="edgeStyle=orthogonalEdgeStyle;rounded=0;orthogonalLoop=1;jettySize=auto;html=1;exitX=0.25;exitY=1;exitDx=0;exitDy=0;entryX=0;entryY=0.5;entryDx=0;entryDy=0;fontFamily=Times New Roman;fontSize=12;fontColor=default;" edge="1" parent="WIyWlLk6GJQsqaUBKTNV-1" source="8rKOA6uTmOLBXOOrl2uE-59" target="8rKOA6uTmOLBXOOrl2uE-71">
          <mxGeometry relative="1" as="geometry" />
        </mxCell>
        <mxCell id="8rKOA6uTmOLBXOOrl2uE-59" value="Presenter" style="rounded=0;whiteSpace=wrap;html=1;fontSize=12;fontFamily=Times New Roman;fillColor=#cce5ff;strokeColor=#36393d;" vertex="1" parent="WIyWlLk6GJQsqaUBKTNV-1">
          <mxGeometry x="927" y="480" width="120" height="40" as="geometry" />
        </mxCell>
        <mxCell id="8rKOA6uTmOLBXOOrl2uE-70" style="edgeStyle=orthogonalEdgeStyle;rounded=0;orthogonalLoop=1;jettySize=auto;html=1;exitX=1;exitY=0.5;exitDx=0;exitDy=0;entryX=0;entryY=0.5;entryDx=0;entryDy=0;fontFamily=Times New Roman;fontSize=12;fontColor=default;" edge="1" parent="WIyWlLk6GJQsqaUBKTNV-1" source="8rKOA6uTmOLBXOOrl2uE-60" target="8rKOA6uTmOLBXOOrl2uE-62">
          <mxGeometry relative="1" as="geometry" />
        </mxCell>
        <mxCell id="8rKOA6uTmOLBXOOrl2uE-75" style="edgeStyle=orthogonalEdgeStyle;rounded=0;orthogonalLoop=1;jettySize=auto;html=1;exitX=0.25;exitY=1;exitDx=0;exitDy=0;entryX=0;entryY=0.5;entryDx=0;entryDy=0;fontFamily=Times New Roman;fontSize=12;fontColor=default;" edge="1" parent="WIyWlLk6GJQsqaUBKTNV-1" source="8rKOA6uTmOLBXOOrl2uE-60" target="8rKOA6uTmOLBXOOrl2uE-74">
          <mxGeometry relative="1" as="geometry" />
        </mxCell>
        <mxCell id="8rKOA6uTmOLBXOOrl2uE-60" value="Service" style="rounded=0;whiteSpace=wrap;html=1;fontSize=12;fontFamily=Times New Roman;fillColor=#cdeb8b;strokeColor=#36393d;" vertex="1" parent="WIyWlLk6GJQsqaUBKTNV-1">
          <mxGeometry x="927" y="680" width="120" height="40" as="geometry" />
        </mxCell>
        <mxCell id="8rKOA6uTmOLBXOOrl2uE-62" value="IService" style="rounded=0;whiteSpace=wrap;html=1;fontSize=12;fontFamily=Times New Roman;fillColor=#cdeb8b;strokeColor=#36393d;" vertex="1" parent="WIyWlLk6GJQsqaUBKTNV-1">
          <mxGeometry x="1087" y="680" width="120" height="40" as="geometry" />
        </mxCell>
        <mxCell id="8rKOA6uTmOLBXOOrl2uE-67" value="สร้าง Form ดักเงื่อนไขขั้นที่ 1 เรียกใช้ Method ใน Presenter" style="rounded=0;whiteSpace=wrap;html=1;align=left;fontFamily=Times New Roman;" vertex="1" parent="WIyWlLk6GJQsqaUBKTNV-1">
          <mxGeometry x="977" y="400" width="290" height="40" as="geometry" />
        </mxCell>
        <mxCell id="8rKOA6uTmOLBXOOrl2uE-71" value="- ดึงข้อมูลจาก View ส่งไปยัง Service&lt;br&gt;- นำข้อมูลจาก Service ไปแสดงแสดงที่ view&lt;br&gt;- แปลงข้อมูลที่รับจาก Front-End ส่งไปยัง Back-End&lt;br&gt;- แปลงข้อมูลที่นำจาก Back-End ไปแสดงที่ Front-End&lt;br&gt;- ตรวจสอบชื่ออ้างอิงของ Entity ให้ DTO ตรงกับ VM" style="rounded=0;whiteSpace=wrap;html=1;align=left;fontFamily=Times New Roman;" vertex="1" parent="WIyWlLk6GJQsqaUBKTNV-1">
          <mxGeometry x="977" y="560" width="290" height="80" as="geometry" />
        </mxCell>
        <mxCell id="8rKOA6uTmOLBXOOrl2uE-74" value="เชื่อมต่อกับ API&lt;br&gt;- ชื่อ Method จะต้องตรงกัน&lt;br&gt;- มี Type Parameter ชนิดเดียวกัน" style="rounded=0;whiteSpace=wrap;html=1;align=left;fontFamily=Times New Roman;" vertex="1" parent="WIyWlLk6GJQsqaUBKTNV-1">
          <mxGeometry x="977" y="760" width="290" height="50" as="geometry" />
        </mxCell>
        <mxCell id="8rKOA6uTmOLBXOOrl2uE-79" style="edgeStyle=orthogonalEdgeStyle;rounded=0;orthogonalLoop=1;jettySize=auto;html=1;exitX=0.25;exitY=1;exitDx=0;exitDy=0;entryX=0;entryY=0.75;entryDx=0;entryDy=0;fontFamily=Times New Roman;fontSize=12;fontColor=default;" edge="1" parent="WIyWlLk6GJQsqaUBKTNV-1" source="8rKOA6uTmOLBXOOrl2uE-76" target="8rKOA6uTmOLBXOOrl2uE-78">
          <mxGeometry relative="1" as="geometry" />
        </mxCell>
        <mxCell id="8rKOA6uTmOLBXOOrl2uE-80" style="edgeStyle=orthogonalEdgeStyle;rounded=0;orthogonalLoop=1;jettySize=auto;html=1;exitX=1;exitY=0.5;exitDx=0;exitDy=0;entryX=0.5;entryY=0;entryDx=0;entryDy=0;fontFamily=Times New Roman;fontSize=12;fontColor=#ed0707;" edge="1" parent="WIyWlLk6GJQsqaUBKTNV-1" source="8rKOA6uTmOLBXOOrl2uE-76" target="8rKOA6uTmOLBXOOrl2uE-47">
          <mxGeometry relative="1" as="geometry">
            <Array as="points">
              <mxPoint x="1287" y="180" />
              <mxPoint x="1287" y="620" />
              <mxPoint x="1387" y="620" />
            </Array>
          </mxGeometry>
        </mxCell>
        <mxCell id="8rKOA6uTmOLBXOOrl2uE-76" value="ViewModel" style="rounded=0;whiteSpace=wrap;html=1;fontSize=12;fontFamily=Times New Roman;fillColor=#EA6B66;strokeColor=#23445d;" vertex="1" parent="WIyWlLk6GJQsqaUBKTNV-1">
          <mxGeometry x="927" y="160" width="120" height="40" as="geometry" />
        </mxCell>
        <mxCell id="8rKOA6uTmOLBXOOrl2uE-78" value="เพิ่ม&amp;nbsp;ViewModel ให้ Properties มีชื่ออ้างอิงตรงกับ DTO" style="rounded=0;whiteSpace=wrap;html=1;align=left;fontFamily=Times New Roman;" vertex="1" parent="WIyWlLk6GJQsqaUBKTNV-1">
          <mxGeometry x="977" y="240" width="290" height="40" as="geometry" />
        </mxCell>
        <mxCell id="8rKOA6uTmOLBXOOrl2uE-83" style="edgeStyle=orthogonalEdgeStyle;rounded=0;orthogonalLoop=1;jettySize=auto;html=1;exitX=0.5;exitY=1;exitDx=0;exitDy=0;entryX=0.5;entryY=0;entryDx=0;entryDy=0;fontFamily=Times New Roman;fontSize=12;fontColor=default;" edge="1" parent="WIyWlLk6GJQsqaUBKTNV-1" source="8rKOA6uTmOLBXOOrl2uE-81" target="Vc_zGwzVF44Cp3WNMDV1-5">
          <mxGeometry relative="1" as="geometry" />
        </mxCell>
        <mxCell id="8rKOA6uTmOLBXOOrl2uE-81" value="ViewModel" style="rounded=0;whiteSpace=wrap;html=1;fontSize=12;fontFamily=Times New Roman;fillColor=#EA6B66;strokeColor=#23445d;" vertex="1" parent="WIyWlLk6GJQsqaUBKTNV-1">
          <mxGeometry y="240" width="120" height="40" as="geometry" />
        </mxCell>
        <mxCell id="8rKOA6uTmOLBXOOrl2uE-84" value="โครงสร้าง Onion Architecture (สถาปัตยกรรมหลอด) " style="text;html=1;strokeColor=none;fillColor=none;align=center;verticalAlign=middle;whiteSpace=wrap;rounded=0;fontSize=16;fontFamily=Times New Roman;" vertex="1" parent="WIyWlLk6GJQsqaUBKTNV-1">
          <mxGeometry x="1207" width="360" height="40" as="geometry" />
        </mxCell>
        <mxCell id="8rKOA6uTmOLBXOOrl2uE-85" value="โครงสร้าง MVP (Model-View-Presenter)" style="text;html=1;strokeColor=none;fillColor=none;align=center;verticalAlign=middle;whiteSpace=wrap;rounded=0;fontSize=16;fontFamily=Times New Roman;" vertex="1" parent="WIyWlLk6GJQsqaUBKTNV-1">
          <mxGeometry x="827" width="320" height="40" as="geometry" />
        </mxCell>
        <mxCell id="8rKOA6uTmOLBXOOrl2uE-89" value="โครงสร้าง Onion Architecture (สถาปัตยกรรมหลอด) " style="text;html=1;strokeColor=none;fillColor=none;align=center;verticalAlign=middle;whiteSpace=wrap;rounded=0;fontSize=16;fontFamily=Times New Roman;" vertex="1" parent="WIyWlLk6GJQsqaUBKTNV-1">
          <mxGeometry x="380" width="360" height="40" as="geometry" />
        </mxCell>
        <mxCell id="8rKOA6uTmOLBXOOrl2uE-90" value="โครงสร้าง MVP (Model-View-Presenter)" style="text;html=1;strokeColor=none;fillColor=none;align=center;verticalAlign=middle;whiteSpace=wrap;rounded=0;fontSize=16;fontFamily=Times New Roman;" vertex="1" parent="WIyWlLk6GJQsqaUBKTNV-1">
          <mxGeometry width="320" height="40" as="geometry" />
        </mxCell>
      </root>
    </mxGraphModel>
  </diagram>
</mxfile>
